<svg width="40" height="40" viewBox="0 0 40 40" fill="none" xmlns="http://www.w3.org/2000/svg">
<rect width="40" height="40" rx="20" fill="#E7E5E4"/>
<path d="M25.0001 24.1667V26.1667C25.0001 26.6334 25.0001 26.8667 24.9093 27.045C24.8294 27.2018 24.7019 27.3293 24.5451 27.4092C24.3668 27.5 24.1335 27.5 23.6667 27.5H16.3334C15.8667 27.5 15.6333 27.5 15.4551 27.4092C15.2983 27.3293 15.1708 27.2018 15.0909 27.045C15.0001 26.8667 15.0001 26.6334 15.0001 26.1667V24.1667M15.6667 24.1667H24.3334C25.7335 24.1667 26.4336 24.1667 26.9684 23.8942C27.4388 23.6545 27.8212 23.272 28.0609 22.8016C28.3334 22.2669 28.3334 21.5668 28.3334 20.1667V16.5C28.3334 15.0999 28.3334 14.3998 28.0609 13.865C27.8212 13.3946 27.4388 13.0122 26.9684 12.7725C26.4336 12.5 25.7335 12.5 24.3334 12.5H15.6667C14.2666 12.5 13.5666 12.5 13.0318 12.7725C12.5614 13.0122 12.1789 13.3946 11.9392 13.865C11.6667 14.3998 11.6667 15.0999 11.6667 16.5V20.1667C11.6667 21.5668 11.6667 22.2669 11.9392 22.8016C12.1789 23.272 12.5614 23.6545 13.0318 23.8942C13.5666 24.1667 14.2666 24.1667 15.6667 24.1667Z" stroke="#44403C" stroke-width="1.66667" stroke-linecap="round" stroke-linejoin="round"/>
<path d="M18.529 14.84V21.46L17.909 22H17.309V16.23L16.149 17.21L15.569 16.48L17.509 14.84H18.529ZM21.9836 14.68C22.7503 14.6867 23.3436 15.0467 23.7636 15.76C24.177 16.4667 24.3836 17.3733 24.3836 18.48C24.3836 19.6 24.177 20.4867 23.7636 21.14C23.357 21.7867 22.767 22.11 21.9936 22.11C21.1936 22.11 20.5903 21.77 20.1836 21.09C19.7903 20.4233 19.5936 19.5567 19.5936 18.49C19.5936 17.3967 19.7903 16.4967 20.1836 15.79C20.597 15.05 21.197 14.68 21.9836 14.68ZM23.1636 18.5C23.1636 17.7867 23.0903 17.19 22.9436 16.71C22.7436 16.05 22.4236 15.7167 21.9836 15.71C21.5903 15.71 21.297 15.9733 21.1036 16.5C20.9103 17.0333 20.8136 17.6967 20.8136 18.49C20.8136 19.2033 20.8903 19.79 21.0436 20.25C21.2236 20.7967 21.537 21.07 21.9836 21.07C22.7703 21.07 23.1636 20.2133 23.1636 18.5Z" fill="#1D2939"/>
</svg>
