<svg width="40" height="40" viewBox="0 0 40 40" fill="none" xmlns="http://www.w3.org/2000/svg">
<rect width="40" height="40" rx="20" fill="#E7E5E4"/>
<path d="M25.0001 24.1667V26.1667C25.0001 26.6334 25.0001 26.8667 24.9093 27.045C24.8294 27.2018 24.7019 27.3293 24.5451 27.4092C24.3668 27.5 24.1335 27.5 23.6667 27.5H16.3334C15.8667 27.5 15.6333 27.5 15.4551 27.4092C15.2983 27.3293 15.1708 27.2018 15.0909 27.045C15.0001 26.8667 15.0001 26.6334 15.0001 26.1667V24.1667M15.6667 24.1667H24.3334C25.7335 24.1667 26.4336 24.1667 26.9684 23.8942C27.4388 23.6545 27.8212 23.272 28.0609 22.8016C28.3334 22.2669 28.3334 21.5668 28.3334 20.1667V16.5C28.3334 15.0999 28.3334 14.3998 28.0609 13.865C27.8212 13.3946 27.4388 13.0122 26.9684 12.7725C26.4336 12.5 25.7335 12.5 24.3334 12.5H15.6667C14.2666 12.5 13.5666 12.5 13.0318 12.7725C12.5614 13.0122 12.1789 13.3946 11.9392 13.865C11.6667 14.3998 11.6667 15.0999 11.6667 16.5V20.1667C11.6667 21.5668 11.6667 22.2669 11.9392 22.8016C12.1789 23.272 12.5614 23.6545 13.0318 23.8942C13.5666 24.1667 14.2666 24.1667 15.6667 24.1667Z" stroke="#44403C" stroke-width="1.66667" stroke-linecap="round" stroke-linejoin="round"/>
<path d="M18.1542 15.38C18.7875 14.9667 19.4275 14.76 20.0742 14.76C20.7208 14.76 21.2142 14.95 21.5542 15.33C21.8542 15.6567 22.0042 16.0933 22.0042 16.64C22.0042 17.0467 21.9075 17.4467 21.7142 17.84C21.5208 18.2333 21.1842 18.7233 20.7042 19.31C20.1642 19.9633 19.8642 20.32 19.8042 20.38L19.2142 20.98H22.1442V21.38L21.6442 22H17.8542V20.98L18.5942 20.22L19.3142 19.4C19.8675 18.7867 20.2242 18.3633 20.3842 18.13C20.7242 17.6433 20.8942 17.2133 20.8942 16.84C20.8942 16.5467 20.7975 16.31 20.6042 16.13C20.4175 15.9433 20.1708 15.85 19.8642 15.85C19.5042 15.85 19.1375 15.98 18.7642 16.24L18.1542 15.38Z" fill="#1D2939"/>
</svg>
