<svg width="406" height="72" viewBox="0 0 406 72" fill="none" xmlns="http://www.w3.org/2000/svg">
<path d="M116.412 31.48C116.664 31.48 116.874 31.5687 117.042 31.746C117.219 31.9233 117.308 32.138 117.308 32.39C117.308 32.642 117.219 32.8567 117.042 33.034C116.874 33.202 116.664 33.286 116.412 33.286C116.16 33.286 115.945 33.1973 115.768 33.02C115.59 32.8427 115.502 32.6327 115.502 32.39C115.502 32.138 115.59 31.9233 115.768 31.746C115.945 31.5687 116.16 31.48 116.412 31.48ZM118.54 31.48C118.792 31.48 119.006 31.5687 119.184 31.746C119.361 31.9233 119.45 32.138 119.45 32.39C119.45 32.6327 119.361 32.8427 119.184 33.02C119.006 33.1973 118.792 33.286 118.54 33.286C118.288 33.286 118.073 33.1973 117.896 33.02C117.718 32.8427 117.63 32.6327 117.63 32.39C117.63 32.138 117.718 31.9233 117.896 31.746C118.073 31.5687 118.288 31.48 118.54 31.48ZM119.45 34.182V38.55C119.45 39.3527 119.174 39.992 118.624 40.468C118.11 40.9067 117.406 41.126 116.51 41.126C115.52 41.126 114.746 40.8087 114.186 40.174C113.644 39.6047 113.374 38.8347 113.374 37.864C113.374 36.8093 113.714 35.9413 114.396 35.26C115.002 34.644 115.754 34.336 116.65 34.336C117.126 34.336 117.578 34.4433 118.008 34.658L118.596 34.182H119.45ZM117.742 35.988C117.415 35.8573 117.107 35.792 116.818 35.792C116.295 35.792 115.87 35.9833 115.544 36.366C115.226 36.7487 115.068 37.248 115.068 37.864C115.068 38.4427 115.194 38.8953 115.446 39.222C115.707 39.5393 116.066 39.698 116.524 39.698C116.934 39.698 117.242 39.586 117.448 39.362C117.644 39.138 117.742 38.8627 117.742 38.536V35.988ZM124.462 34.56V40.664C124.462 41.8213 124.108 42.7173 123.398 43.352C122.941 43.772 122.353 44.066 121.634 44.234C121.298 44.2993 120.948 44.332 120.584 44.332C120.463 44.332 120.3 44.3227 120.094 44.304L119.408 43.45V42.848C119.707 42.8947 119.996 42.918 120.276 42.918C121.928 42.918 122.754 42.1153 122.754 40.51V34.56H124.462ZM128.102 30.976V40.65L127.234 41.35H126.394V30.976H128.102ZM131.024 34.476C131.342 34.42 131.71 34.392 132.13 34.392C133.204 34.392 134.072 34.7373 134.734 35.428C135.322 36.0533 135.616 36.828 135.616 37.752V39.46C135.616 39.8987 135.458 40.2673 135.14 40.566C134.851 40.8553 134.506 41 134.104 41H129.61V39.572H133.558C133.792 39.572 133.908 39.4553 133.908 39.222V37.92C133.908 37.276 133.712 36.758 133.32 36.366C132.956 36.002 132.429 35.806 131.738 35.778C131.421 35.778 131.183 35.7967 131.024 35.834V34.476ZM144.777 30.976V39.46C144.777 39.8613 144.646 40.202 144.385 40.482C144.086 40.8273 143.713 41 143.265 41H137.651L136.951 40.132V39.572H140.353L138.043 32.698H139.639L141.963 39.572H142.719C142.831 39.572 142.924 39.5347 142.999 39.46C143.046 39.3853 143.069 39.306 143.069 39.222V30.976H144.777ZM141.025 44.458C140.866 44.206 140.787 43.94 140.787 43.66C140.787 43.2587 140.904 42.9367 141.137 42.694C141.38 42.4513 141.702 42.33 142.103 42.33C142.318 42.33 142.556 42.372 142.817 42.456V43.198C142.63 43.142 142.458 43.114 142.299 43.114C141.888 43.114 141.683 43.338 141.683 43.786C141.683 43.954 141.73 44.1033 141.823 44.234C141.935 44.3833 142.103 44.458 142.327 44.458H143.279V44.808L142.943 45.214H140.465V44.458H141.025ZM148.418 30.976V40.65L147.55 41.35H146.71V30.976H148.418ZM162.577 31.48C162.829 31.48 163.044 31.5687 163.221 31.746C163.399 31.9233 163.487 32.138 163.487 32.39C163.487 32.6327 163.399 32.8427 163.221 33.02C163.044 33.1973 162.829 33.286 162.577 33.286C162.325 33.286 162.111 33.1973 161.933 33.02C161.756 32.8427 161.667 32.6327 161.667 32.39C161.667 32.138 161.756 31.9233 161.933 31.746C162.111 31.5687 162.325 31.48 162.577 31.48ZM159.945 39.572C159.507 38.984 159.287 38.3073 159.287 37.542C159.287 36.5247 159.642 35.722 160.351 35.134C160.949 34.6393 161.691 34.392 162.577 34.392C163.259 34.392 163.842 34.56 164.327 34.896C165.027 35.3533 165.377 36.0487 165.377 36.982V39.474C165.377 39.9127 165.219 40.2813 164.901 40.58C164.593 40.86 164.248 41 163.865 41H155.381C154.765 41 154.224 40.79 153.757 40.37C153.207 39.8847 152.931 39.2547 152.931 38.48V36.268L153.799 35.568H154.639V38.48C154.639 38.7787 154.742 39.0307 154.947 39.236C155.143 39.46 155.4 39.572 155.717 39.572H159.945ZM163.669 36.982C163.669 36.6367 163.567 36.3567 163.361 36.142C163.156 35.9273 162.89 35.82 162.563 35.82C162.069 35.82 161.681 35.9833 161.401 36.31C161.121 36.6367 160.981 37.0893 160.981 37.668C160.981 38.2467 161.145 38.7087 161.471 39.054C161.807 39.3993 162.255 39.572 162.815 39.572H163.319C163.553 39.572 163.669 39.4553 163.669 39.222V36.982ZM168.117 34.476C168.434 34.42 168.803 34.392 169.223 34.392C170.296 34.392 171.164 34.7373 171.827 35.428C172.415 36.0533 172.709 36.828 172.709 37.752V39.096C172.709 39.3107 172.704 39.4693 172.695 39.572H173.059V41H172.877L172.415 40.426H172.373C172.298 40.51 172.219 40.5893 172.135 40.664C171.855 40.888 171.542 41 171.197 41H166.703V39.572H170.651C170.884 39.572 171.001 39.4553 171.001 39.222V37.92C171.001 37.276 170.805 36.758 170.413 36.366C170.049 36.002 169.521 35.806 168.831 35.778C168.513 35.778 168.275 35.7967 168.117 35.834V34.476ZM176.366 34.714C177.374 34.2567 178.396 34.028 179.432 34.028C180.767 34.028 181.775 34.4293 182.456 35.232C183.044 35.932 183.338 36.8747 183.338 38.06V39.18C183.338 39.2173 183.333 39.2873 183.324 39.39C183.324 39.474 183.324 39.5347 183.324 39.572H183.786V41H183.506L183.03 40.426H183.002C182.909 40.5287 182.792 40.636 182.652 40.748C182.409 40.916 182.134 41 181.826 41H178.326C177.934 41 177.635 40.9487 177.43 40.846H177.374C177.169 40.9487 176.823 41 176.338 41H172.95V39.572H175.47C175.321 39.3853 175.199 39.1427 175.106 38.844C175.022 38.564 174.98 38.2653 174.98 37.948C174.98 37.3507 175.134 36.8373 175.442 36.408C175.685 36.0813 175.993 35.8387 176.366 35.68V34.714ZM181.63 38.284C181.63 37.248 181.401 36.4967 180.944 36.03C180.515 35.6007 179.866 35.386 178.998 35.386C178.615 35.386 178.209 35.428 177.78 35.512C178.452 35.596 178.979 35.8947 179.362 36.408C179.67 36.8373 179.824 37.3507 179.824 37.948C179.824 38.2467 179.787 38.5313 179.712 38.802C179.619 39.1193 179.497 39.376 179.348 39.572H181.266C181.387 39.572 181.476 39.5347 181.532 39.46C181.597 39.3947 181.63 39.3153 181.63 39.222V38.284ZM177.388 39.404C177.696 39.376 177.943 39.236 178.13 38.984C178.317 38.7227 178.41 38.396 178.41 38.004C178.41 37.556 178.303 37.2107 178.088 36.968C177.901 36.7533 177.668 36.646 177.388 36.646C177.117 36.646 176.884 36.744 176.688 36.94C176.464 37.192 176.352 37.5467 176.352 38.004C176.361 38.4053 176.459 38.732 176.646 38.984C176.833 39.236 177.08 39.376 177.388 39.404ZM187.897 34.56V39.46C187.897 39.824 187.775 40.16 187.533 40.468C187.225 40.8227 186.842 41 186.385 41H183.683V39.572H185.839C185.941 39.572 186.03 39.5347 186.105 39.46C186.17 39.3947 186.203 39.3153 186.203 39.222V34.56H187.897ZM186.735 42.022C186.987 42.022 187.201 42.1107 187.379 42.288C187.556 42.4653 187.645 42.68 187.645 42.932C187.645 43.184 187.556 43.3987 187.379 43.576C187.201 43.7533 186.987 43.842 186.735 43.842C186.483 43.842 186.268 43.7533 186.091 43.576C185.923 43.3987 185.839 43.184 185.839 42.932C185.839 42.68 185.923 42.4653 186.091 42.288C186.268 42.1107 186.483 42.022 186.735 42.022ZM193.886 39.572C193.494 39.0307 193.298 38.368 193.298 37.584C193.307 36.576 193.648 35.7733 194.32 35.176C194.898 34.6627 195.622 34.4013 196.49 34.392C197.33 34.392 198.011 34.6067 198.534 35.036C199.094 35.5027 199.374 36.1513 199.374 36.982V39.222C199.374 39.3247 199.406 39.4087 199.472 39.474C199.528 39.5393 199.598 39.572 199.682 39.572H199.822V41H199.206C198.944 41 198.725 40.9533 198.548 40.86C198.37 40.776 198.202 40.65 198.044 40.482C197.838 40.65 197.61 40.7667 197.358 40.832C197.022 40.944 196.611 41 196.126 41H194.278C194.044 41 193.928 41.1167 193.928 41.35V45.536L193.06 46.222H192.22V41.112C192.22 40.7107 192.355 40.3607 192.626 40.062C192.934 39.7353 193.274 39.572 193.648 39.572H193.886ZM197.666 36.982C197.666 36.646 197.563 36.3707 197.358 36.156C197.152 35.932 196.877 35.82 196.532 35.82C196.065 35.82 195.692 35.9927 195.412 36.338C195.132 36.674 194.992 37.122 194.992 37.682C194.992 38.2887 195.141 38.7647 195.44 39.11C195.738 39.446 196.154 39.614 196.686 39.614C197.04 39.614 197.367 39.5487 197.666 39.418V36.982ZM203.934 34.56V39.362V39.572H204.648V41H204.158L203.64 40.426H203.612C203.294 40.8087 202.898 41 202.422 41H199.72V39.572H201.834C201.964 39.572 202.058 39.5347 202.114 39.46C202.198 39.3853 202.24 39.292 202.24 39.18V34.56H203.934ZM200.896 42.022C201.148 42.022 201.362 42.1107 201.54 42.288C201.717 42.4653 201.806 42.68 201.806 42.932C201.806 43.184 201.717 43.3987 201.54 43.576C201.362 43.7533 201.148 43.842 200.896 43.842C200.644 43.842 200.429 43.7533 200.252 43.576C200.074 43.3987 199.986 43.184 199.986 42.932C199.986 42.68 200.074 42.4653 200.252 42.288C200.429 42.1107 200.644 42.022 200.896 42.022ZM203.024 42.022C203.276 42.022 203.49 42.1107 203.668 42.288C203.845 42.4653 203.934 42.68 203.934 42.932C203.934 43.184 203.845 43.3987 203.668 43.576C203.49 43.7533 203.276 43.842 203.024 43.842C202.781 43.842 202.571 43.7533 202.394 43.576C202.216 43.3987 202.128 43.184 202.128 42.932C202.128 42.68 202.216 42.4653 202.394 42.288C202.571 42.1107 202.781 42.022 203.024 42.022ZM208.76 34.56V39.362V39.572H209.474V41H208.984L208.466 40.426H208.438C208.121 40.8087 207.724 41 207.248 41H204.546V39.572H206.66C206.791 39.572 206.884 39.5347 206.94 39.46C207.024 39.3853 207.066 39.292 207.066 39.18V34.56H208.76ZM205.722 42.022C205.974 42.022 206.189 42.1107 206.366 42.288C206.543 42.4653 206.632 42.68 206.632 42.932C206.632 43.184 206.543 43.3987 206.366 43.576C206.189 43.7533 205.974 43.842 205.722 43.842C205.47 43.842 205.255 43.7533 205.078 43.576C204.901 43.3987 204.812 43.184 204.812 42.932C204.812 42.68 204.901 42.4653 205.078 42.288C205.255 42.1107 205.47 42.022 205.722 42.022ZM207.85 42.022C208.102 42.022 208.317 42.1107 208.494 42.288C208.671 42.4653 208.76 42.68 208.76 42.932C208.76 43.184 208.671 43.3987 208.494 43.576C208.317 43.7533 208.102 43.842 207.85 43.842C207.607 43.842 207.397 43.7533 207.22 43.576C207.043 43.3987 206.954 43.184 206.954 42.932C206.954 42.68 207.043 42.4653 207.22 42.288C207.397 42.1107 207.607 42.022 207.85 42.022ZM213.586 31.48C213.838 31.48 214.053 31.5687 214.23 31.746C214.407 31.9233 214.496 32.138 214.496 32.39C214.496 32.6327 214.407 32.8427 214.23 33.02C214.053 33.1973 213.838 33.286 213.586 33.286C213.343 33.286 213.133 33.1973 212.956 33.02C212.779 32.8427 212.69 32.6327 212.69 32.39C212.69 32.138 212.779 31.9233 212.956 31.746C213.133 31.5687 213.343 31.48 213.586 31.48ZM215.714 31.48C215.966 31.48 216.181 31.5687 216.358 31.746C216.535 31.9233 216.624 32.138 216.624 32.39C216.624 32.6327 216.535 32.8427 216.358 33.02C216.181 33.1973 215.966 33.286 215.714 33.286C215.462 33.286 215.247 33.202 215.07 33.034C214.902 32.8567 214.818 32.642 214.818 32.39C214.818 32.138 214.902 31.9233 215.07 31.746C215.247 31.5687 215.462 31.48 215.714 31.48ZM212.158 39.572C211.738 39.012 211.528 38.3353 211.528 37.542C211.528 36.8233 211.71 36.2027 212.074 35.68C212.662 34.8213 213.511 34.392 214.622 34.392C215.462 34.392 216.167 34.6533 216.736 35.176C217.399 35.7827 217.73 36.5713 217.73 37.542C217.73 38.3073 217.52 38.984 217.1 39.572H218.066V41H215.966C215.359 41 214.921 40.9393 214.65 40.818H214.58C214.319 40.9393 213.88 41 213.264 41H209.372V39.572H212.158ZM214.622 39.558C215.042 39.5113 215.378 39.32 215.63 38.984C215.891 38.6387 216.022 38.2 216.022 37.668C216.022 37.108 215.896 36.66 215.644 36.324C215.392 35.988 215.051 35.82 214.622 35.82C214.202 35.82 213.861 35.988 213.6 36.324C213.348 36.66 213.222 37.108 213.222 37.668C213.222 38.2 213.348 38.6387 213.6 38.984C213.861 39.32 214.202 39.5113 214.622 39.558ZM219.33 31.48C219.582 31.48 219.796 31.5687 219.974 31.746C220.151 31.9233 220.24 32.138 220.24 32.39C220.24 32.6327 220.151 32.8427 219.974 33.02C219.796 33.1973 219.582 33.286 219.33 33.286C219.078 33.286 218.863 33.1973 218.686 33.02C218.508 32.8427 218.42 32.6327 218.42 32.39C218.42 32.138 218.508 31.9233 218.686 31.746C218.863 31.5687 219.078 31.48 219.33 31.48ZM221.458 31.48C221.71 31.48 221.924 31.5687 222.102 31.746C222.279 31.9233 222.368 32.138 222.368 32.39C222.368 32.6327 222.279 32.8427 222.102 33.02C221.924 33.1973 221.71 33.286 221.458 33.286C221.215 33.286 221.005 33.1973 220.828 33.02C220.65 32.8427 220.562 32.6327 220.562 32.39C220.562 32.138 220.65 31.9233 220.828 31.746C221.005 31.5687 221.215 31.48 221.458 31.48ZM222.186 34.56V39.362V39.572H222.9V41H222.41L221.892 40.426H221.864C221.546 40.8087 221.15 41 220.674 41H217.972V39.572H220.086C220.216 39.572 220.31 39.5347 220.366 39.46C220.45 39.3853 220.492 39.292 220.492 39.18V34.56H222.186ZM227.012 30.976V39.46C227.012 39.852 226.886 40.188 226.634 40.468C226.345 40.8227 225.967 41 225.5 41H222.798V39.572H224.954C225.057 39.572 225.145 39.5347 225.22 39.46C225.285 39.3947 225.318 39.3153 225.318 39.222V30.976H227.012ZM230.654 30.976V40.65L229.786 41.35H228.946V30.976H230.654ZM236.741 40.944C236.34 41.056 235.948 41.112 235.565 41.112C234.576 41.112 233.773 40.7293 233.157 39.964C232.653 39.32 232.401 38.5593 232.401 37.682C232.401 36.7207 232.686 35.9413 233.255 35.344C233.843 34.7093 234.641 34.392 235.649 34.392C236.396 34.392 237.021 34.5833 237.525 34.966C238.16 35.4233 238.477 36.0953 238.477 36.982V40.664C238.477 41.868 238.095 42.792 237.329 43.436C236.891 43.8093 236.345 44.0707 235.691 44.22C235.365 44.2947 235.001 44.332 234.599 44.332C234.497 44.332 234.333 44.3227 234.109 44.304L233.423 43.45V42.848C233.722 42.8947 234.016 42.918 234.305 42.918C235.808 42.918 236.62 42.26 236.741 40.944ZM236.769 36.982C236.769 36.5807 236.634 36.2727 236.363 36.058C236.177 35.8993 235.939 35.82 235.649 35.82C235.164 35.82 234.781 35.988 234.501 36.324C234.231 36.66 234.095 37.122 234.095 37.71C234.095 38.3167 234.249 38.7973 234.557 39.152C234.875 39.4973 235.304 39.67 235.845 39.67C236.144 39.67 236.452 39.614 236.769 39.502V36.982ZM243.79 34.476C244.108 34.42 244.476 34.392 244.896 34.392C245.97 34.392 246.838 34.7373 247.5 35.428C248.088 36.0533 248.382 36.828 248.382 37.752V39.096C248.382 39.3107 248.378 39.4693 248.368 39.572H248.732V41H248.55L248.088 40.426H248.046C247.972 40.51 247.892 40.5893 247.808 40.664C247.528 40.888 247.216 41 246.87 41H242.376V39.572H246.324C246.558 39.572 246.674 39.4553 246.674 39.222V37.92C246.674 37.276 246.478 36.758 246.086 36.366C245.722 36.002 245.195 35.806 244.504 35.778C244.187 35.778 243.949 35.7967 243.79 35.834V34.476ZM252.838 36.912C254.088 35.2227 255.633 34.378 257.472 34.378C258.592 34.378 259.516 34.728 260.244 35.428C260.906 36.072 261.238 36.8747 261.238 37.836V39.46C261.238 39.88 261.093 40.2347 260.804 40.524C260.514 40.8413 260.155 41 259.726 41H248.624V39.572H251.144V34.56H252.838V36.912ZM259.53 37.92C259.53 37.3413 259.343 36.8747 258.97 36.52C258.522 36.072 257.934 35.848 257.206 35.848C256.487 35.848 255.787 36.086 255.106 36.562C254.191 37.1967 253.435 38.2 252.838 39.572H259.18C259.413 39.572 259.53 39.4553 259.53 39.222V37.92ZM266.253 34.56V39.572H266.967V41H266.239C266.165 42.12 265.721 42.9787 264.909 43.576C264.237 44.0707 263.411 44.318 262.431 44.318C262.263 44.318 262.081 44.3133 261.885 44.304L261.199 43.45V42.848C261.498 42.8947 261.787 42.918 262.067 42.918C263.719 42.918 264.545 42.1153 264.545 40.51V34.56H266.253ZM271.09 30.976V39.46C271.09 39.852 270.964 40.188 270.712 40.468C270.423 40.8227 270.045 41 269.578 41H266.876V39.572H269.032C269.135 39.572 269.223 39.5347 269.298 39.46C269.363 39.3947 269.396 39.3153 269.396 39.222V30.976H271.09ZM274.733 30.976V40.65L273.865 41.35H273.025V30.976H274.733ZM280.702 39.572C280.31 39.0213 280.114 38.3587 280.114 37.584C280.123 36.5667 280.468 35.764 281.15 35.176C281.738 34.6627 282.475 34.4013 283.362 34.392C284.323 34.392 285.06 34.686 285.574 35.274C285.984 35.7127 286.19 36.282 286.19 36.982V39.46C286.19 39.936 286.012 40.3233 285.658 40.622C285.378 40.874 285.051 41 284.678 41H281.094C280.86 41 280.744 41.1167 280.744 41.35V45.536L279.876 46.222H279.036V41.112C279.036 40.692 279.176 40.3327 279.456 40.034C279.745 39.726 280.086 39.572 280.478 39.572H280.702ZM284.482 36.982C284.482 36.5993 284.356 36.3053 284.104 36.1C283.898 35.9133 283.646 35.82 283.348 35.82C282.881 35.82 282.508 35.9927 282.228 36.338C281.948 36.674 281.808 37.122 281.808 37.682C281.808 38.2607 281.952 38.7227 282.242 39.068C282.54 39.404 282.946 39.572 283.46 39.572H284.132C284.365 39.572 284.482 39.4553 284.482 39.222V36.982ZM289.635 30.976V40.65L288.767 41.35H287.927V30.976H289.635ZM292.572 34.476C292.889 34.42 293.258 34.392 293.678 34.392C294.751 34.392 295.619 34.7373 296.282 35.428C296.87 36.0533 297.164 36.828 297.164 37.752V39.096C297.164 39.3107 297.159 39.4693 297.15 39.572H297.514V41H297.332L296.87 40.426H296.828C296.753 40.51 296.674 40.5893 296.59 40.664C296.31 40.888 295.997 41 295.652 41H291.158V39.572H295.106C295.339 39.572 295.456 39.4553 295.456 39.222V37.92C295.456 37.276 295.26 36.758 294.868 36.366C294.504 36.002 293.976 35.806 293.286 35.778C292.968 35.778 292.73 35.7967 292.572 35.834V34.476ZM301.829 31.48C302.081 31.48 302.296 31.5687 302.473 31.746C302.65 31.9233 302.739 32.138 302.739 32.39C302.739 32.6327 302.65 32.8427 302.473 33.02C302.296 33.1973 302.081 33.286 301.829 33.286C301.586 33.286 301.376 33.1973 301.199 33.02C301.022 32.8427 300.933 32.6327 300.933 32.39C300.933 32.138 301.022 31.9233 301.199 31.746C301.376 31.5687 301.586 31.48 301.829 31.48ZM299.267 34.798C300.154 34.5273 300.961 34.392 301.689 34.392C302.818 34.392 303.728 34.7467 304.419 35.456C305.044 36.0907 305.357 36.8933 305.357 37.864V39.362V39.572H305.819V41H305.525L305.063 40.426H305.035C304.718 40.8087 304.321 41 303.845 41H297.405V39.572H303.299C303.532 39.572 303.649 39.4553 303.649 39.222V37.962C303.649 37.3273 303.434 36.8187 303.005 36.436C302.585 36.044 302.03 35.848 301.339 35.848C300.882 35.848 300.191 35.9507 299.267 36.156V34.798ZM307.076 31.48C307.328 31.48 307.542 31.5687 307.72 31.746C307.897 31.9233 307.986 32.138 307.986 32.39C307.986 32.6327 307.897 32.8427 307.72 33.02C307.542 33.1973 307.328 33.286 307.076 33.286C306.824 33.286 306.609 33.1973 306.432 33.02C306.254 32.8427 306.166 32.6327 306.166 32.39C306.166 32.138 306.254 31.9233 306.432 31.746C306.609 31.5687 306.824 31.48 307.076 31.48ZM309.204 31.48C309.456 31.48 309.67 31.5687 309.848 31.746C310.025 31.9233 310.114 32.138 310.114 32.39C310.114 32.6327 310.025 32.8427 309.848 33.02C309.67 33.1973 309.456 33.286 309.204 33.286C308.961 33.286 308.751 33.1973 308.574 33.02C308.396 32.8427 308.308 32.6327 308.308 32.39C308.308 32.138 308.396 31.9233 308.574 31.746C308.751 31.5687 308.961 31.48 309.204 31.48ZM309.932 34.56V39.362V39.572H310.646V41H310.156L309.638 40.426H309.61C309.292 40.8087 308.896 41 308.42 41H305.718V39.572H307.832C307.962 39.572 308.056 39.5347 308.112 39.46C308.196 39.3853 308.238 39.292 308.238 39.18V34.56H309.932ZM325.398 34.56V39.46C325.398 39.88 325.249 40.244 324.95 40.552C324.661 40.8507 324.306 41 323.886 41H320.946L320.428 40.426H320.386C320.078 40.8087 319.686 41 319.21 41H316.27L315.738 40.426H315.696C315.388 40.8087 314.996 41 314.52 41H310.544V39.572H313.974C314.207 39.572 314.324 39.4553 314.324 39.222V36.17H316.032V38.97C316.032 39.2407 316.027 39.4413 316.018 39.572H318.664C318.897 39.572 319.014 39.4553 319.014 39.222V35.358H320.722V39.096C320.722 39.152 320.717 39.236 320.708 39.348C320.708 39.4507 320.708 39.5253 320.708 39.572H323.34C323.573 39.572 323.69 39.4553 323.69 39.222V34.56H325.398ZM329.037 30.976V40.65L328.169 41.35H327.329V30.976H329.037Z" fill="#101828"/>
<rect x="342" y="16" width="40" height="40" rx="20" fill="#E7E5E4"/>
<path d="M367 40.1667V42.1667C367 42.6334 367 42.8667 366.909 43.045C366.829 43.2018 366.702 43.3293 366.545 43.4092C366.367 43.5 366.133 43.5 365.667 43.5H358.333C357.867 43.5 357.633 43.5 357.455 43.4092C357.298 43.3293 357.171 43.2018 357.091 43.045C357 42.8667 357 42.6334 357 42.1667V40.1667M357.667 40.1667H366.333C367.734 40.1667 368.434 40.1667 368.968 39.8942C369.439 39.6545 369.821 39.272 370.061 38.8016C370.333 38.2669 370.333 37.5668 370.333 36.1667V32.5C370.333 31.0999 370.333 30.3998 370.061 29.865C369.821 29.3946 369.439 29.0122 368.968 28.7725C368.434 28.5 367.734 28.5 366.333 28.5H357.667C356.267 28.5 355.567 28.5 355.032 28.7725C354.561 29.0122 354.179 29.3946 353.939 29.865C353.667 30.3998 353.667 31.0999 353.667 32.5V36.1667C353.667 37.5668 353.667 38.2669 353.939 38.8016C354.179 39.272 354.561 39.6545 355.032 39.8942C355.567 40.1667 356.267 40.1667 357.667 40.1667Z" stroke="#44403C" stroke-width="1.66667" stroke-linecap="round" stroke-linejoin="round"/>
<path d="M360.365 31C360.872 30.84 361.288 30.76 361.615 30.76C362.315 30.76 362.872 30.9433 363.285 31.31C363.685 31.6633 363.885 32.1333 363.885 32.72C363.885 33.58 363.472 34.1233 362.645 34.35C363.132 34.45 363.505 34.6567 363.765 34.97C364.038 35.3033 364.175 35.6767 364.175 36.09C364.175 36.7767 363.888 37.3067 363.315 37.68C362.875 37.9667 362.345 38.11 361.725 38.11C361.292 38.11 360.865 38.0567 360.445 37.95L360.055 37.47V37.01C360.522 37.0967 360.922 37.14 361.255 37.14C362.388 37.14 362.955 36.7933 362.955 36.1C362.955 35.74 362.798 35.4367 362.485 35.19C362.285 35.0367 362.072 34.9333 361.845 34.88C361.625 34.8267 361.282 34.7933 360.815 34.78V33.85H361.825C362.078 33.85 362.288 33.7633 362.455 33.59C362.622 33.41 362.705 33.1867 362.705 32.92C362.705 32.58 362.588 32.3167 362.355 32.13C362.128 31.9367 361.815 31.84 361.415 31.84C361.162 31.84 360.812 31.8967 360.365 32.01V31Z" fill="#1D2939"/>
</svg>
