<svg width="40" height="40" viewBox="0 0 40 40" fill="none" xmlns="http://www.w3.org/2000/svg">
<rect width="40" height="40" rx="20" fill="#E7E5E4"/>
<path d="M25.0001 24.1667V26.1667C25.0001 26.6334 25.0001 26.8667 24.9093 27.045C24.8294 27.2018 24.7019 27.3293 24.5451 27.4092C24.3668 27.5 24.1335 27.5 23.6667 27.5H16.3334C15.8667 27.5 15.6333 27.5 15.4551 27.4092C15.2983 27.3293 15.1708 27.2018 15.0909 27.045C15.0001 26.8667 15.0001 26.6334 15.0001 26.1667V24.1667M15.6667 24.1667H24.3334C25.7335 24.1667 26.4336 24.1667 26.9684 23.8942C27.4388 23.6545 27.8212 23.272 28.0609 22.8016C28.3334 22.2669 28.3334 21.5668 28.3334 20.1667V16.5C28.3334 15.0999 28.3334 14.3998 28.0609 13.865C27.8212 13.3946 27.4388 13.0122 26.9684 12.7725C26.4336 12.5 25.7335 12.5 24.3334 12.5H15.6667C14.2666 12.5 13.5666 12.5 13.0318 12.7725C12.5614 13.0122 12.1789 13.3946 11.9392 13.865C11.6667 14.3998 11.6667 15.0999 11.6667 16.5V20.1667C11.6667 21.5668 11.6667 22.2669 11.9392 22.8016C12.1789 23.272 12.5614 23.6545 13.0318 23.8942C13.5666 24.1667 14.2666 24.1667 15.6667 24.1667Z" stroke="#44403C" stroke-width="1.66667" stroke-linecap="round" stroke-linejoin="round"/>
<path d="M21.5493 14.84V19.28H22.4493V20.32H21.5493V21.45L20.9393 22H20.3593V20.32H17.5493V19.44L20.3793 14.84H21.5493ZM20.3593 16.44L18.6793 19.28H20.3593V16.44Z" fill="#1D2939"/>
</svg>
