<svg width="40" height="40" viewBox="0 0 40 40" fill="none" xmlns="http://www.w3.org/2000/svg">
<rect width="40" height="40" rx="20" fill="#E7E5E4"/>
<path d="M25.0001 24.1667V26.1667C25.0001 26.6334 25.0001 26.8667 24.9093 27.045C24.8294 27.2018 24.7019 27.3293 24.5451 27.4092C24.3668 27.5 24.1335 27.5 23.6667 27.5H16.3334C15.8667 27.5 15.6333 27.5 15.4551 27.4092C15.2983 27.3293 15.1708 27.2018 15.0909 27.045C15.0001 26.8667 15.0001 26.6334 15.0001 26.1667V24.1667M15.6667 24.1667H24.3334C25.7335 24.1667 26.4336 24.1667 26.9684 23.8942C27.4388 23.6545 27.8212 23.272 28.0609 22.8016C28.3334 22.2669 28.3334 21.5668 28.3334 20.1667V16.5C28.3334 15.0999 28.3334 14.3998 28.0609 13.865C27.8212 13.3946 27.4388 13.0122 26.9684 12.7725C26.4336 12.5 25.7335 12.5 24.3334 12.5H15.6667C14.2666 12.5 13.5666 12.5 13.0318 12.7725C12.5614 13.0122 12.1789 13.3946 11.9392 13.865C11.6667 14.3998 11.6667 15.0999 11.6667 16.5V20.1667C11.6667 21.5668 11.6667 22.2669 11.9392 22.8016C12.1789 23.272 12.5614 23.6545 13.0318 23.8942C13.5666 24.1667 14.2666 24.1667 15.6667 24.1667Z" stroke="#44403C" stroke-width="1.66667" stroke-linecap="round" stroke-linejoin="round"/>
<path d="M21.3439 14.84V15.86H19.1439L19.0439 17.65C19.2639 17.6167 19.4439 17.6 19.5839 17.6C20.3439 17.6 20.9306 17.84 21.3439 18.32C21.6972 18.7333 21.8739 19.2767 21.8739 19.95C21.8739 20.67 21.6039 21.2233 21.0639 21.61C20.6306 21.9167 20.0839 22.07 19.4239 22.07C18.9906 22.07 18.5639 22.0167 18.1439 21.91L17.7539 21.44V20.97C18.2139 21.0633 18.6139 21.11 18.9539 21.11C19.5472 21.11 19.9672 21.03 20.2139 20.87C20.5072 20.6833 20.6539 20.3567 20.6539 19.89C20.6539 19.4167 20.5306 19.0767 20.2839 18.87C20.0372 18.6633 19.6339 18.56 19.0739 18.56C18.8406 18.56 18.4739 18.5867 17.9739 18.64C17.9072 18.6467 17.8506 18.6533 17.8039 18.66L18.0139 14.84H21.3439Z" fill="#1D2939"/>
</svg>
