<svg width="40" height="40" viewBox="0 0 40 40" fill="none" xmlns="http://www.w3.org/2000/svg">
<rect width="40" height="40" rx="20" fill="#E7E5E4"/>
<path d="M25.0001 24.1667V26.1667C25.0001 26.6334 25.0001 26.8667 24.9093 27.045C24.8294 27.2018 24.7019 27.3293 24.5451 27.4092C24.3668 27.5 24.1335 27.5 23.6667 27.5H16.3334C15.8667 27.5 15.6333 27.5 15.4551 27.4092C15.2983 27.3293 15.1708 27.2018 15.0909 27.045C15.0001 26.8667 15.0001 26.6334 15.0001 26.1667V24.1667M15.6667 24.1667H24.3334C25.7335 24.1667 26.4336 24.1667 26.9684 23.8942C27.4388 23.6545 27.8212 23.272 28.0609 22.8016C28.3334 22.2669 28.3334 21.5668 28.3334 20.1667V16.5C28.3334 15.0999 28.3334 14.3998 28.0609 13.865C27.8212 13.3946 27.4388 13.0122 26.9684 12.7725C26.4336 12.5 25.7335 12.5 24.3334 12.5H15.6667C14.2666 12.5 13.5666 12.5 13.0318 12.7725C12.5614 13.0122 12.1789 13.3946 11.9392 13.865C11.6667 14.3998 11.6667 15.0999 11.6667 16.5V20.1667C11.6667 21.5668 11.6667 22.2669 11.9392 22.8016C12.1789 23.272 12.5614 23.6545 13.0318 23.8942C13.5666 24.1667 14.2666 24.1667 15.6667 24.1667Z" stroke="#44403C" stroke-width="1.66667" stroke-linecap="round" stroke-linejoin="round"/>
<path d="M18.8645 18.28C19.2845 17.7267 19.7745 17.45 20.3345 17.45C21.0078 17.45 21.5245 17.6933 21.8845 18.18C22.1845 18.5733 22.3345 19.07 22.3345 19.67C22.3345 20.4433 22.1245 21.05 21.7045 21.49C21.3178 21.8967 20.7945 22.1 20.1345 22.1C19.2945 22.1 18.6711 21.77 18.2645 21.11C17.9645 20.6167 17.8145 19.99 17.8145 19.23V18.95C17.8145 17.7233 18.0478 16.7367 18.5145 15.99C19.0278 15.1833 19.7745 14.78 20.7545 14.78C20.9145 14.78 21.1145 14.8 21.3545 14.84L21.7845 15.36V15.83C21.7511 15.8233 21.6911 15.8133 21.6045 15.8C21.2845 15.74 21.0411 15.71 20.8745 15.71C20.4611 15.71 20.0911 15.8367 19.7645 16.09C19.4378 16.3367 19.2078 16.6733 19.0745 17.1C18.9745 17.4133 18.9045 17.8067 18.8645 18.28ZM21.1145 19.69C21.1145 19.3033 21.0178 18.9933 20.8245 18.76C20.6378 18.52 20.3878 18.4033 20.0745 18.41C19.7878 18.41 19.5345 18.53 19.3145 18.77C19.0945 19.0033 18.9845 19.2767 18.9845 19.59C18.9845 20.05 19.0811 20.4133 19.2745 20.68C19.4745 20.9467 19.7478 21.08 20.0945 21.08C20.3945 21.08 20.6378 20.95 20.8245 20.69C21.0178 20.43 21.1145 20.0967 21.1145 19.69Z" fill="#1D2939"/>
</svg>
