<svg width="40" height="40" viewBox="0 0 40 40" fill="none" xmlns="http://www.w3.org/2000/svg">
<rect width="40" height="40" rx="20" fill="#E7E5E4"/>
<path d="M25.0001 24.1667V26.1667C25.0001 26.6334 25.0001 26.8667 24.9093 27.045C24.8294 27.2018 24.7019 27.3293 24.5451 27.4092C24.3668 27.5 24.1335 27.5 23.6667 27.5H16.3334C15.8667 27.5 15.6333 27.5 15.4551 27.4092C15.2983 27.3293 15.1708 27.2018 15.0909 27.045C15.0001 26.8667 15.0001 26.6334 15.0001 26.1667V24.1667M15.6667 24.1667H24.3334C25.7335 24.1667 26.4336 24.1667 26.9684 23.8942C27.4388 23.6545 27.8212 23.272 28.0609 22.8016C28.3334 22.2669 28.3334 21.5668 28.3334 20.1667V16.5C28.3334 15.0999 28.3334 14.3998 28.0609 13.865C27.8212 13.3946 27.4388 13.0122 26.9684 12.7725C26.4336 12.5 25.7335 12.5 24.3334 12.5H15.6667C14.2666 12.5 13.5666 12.5 13.0318 12.7725C12.5614 13.0122 12.1789 13.3946 11.9392 13.865C11.6667 14.3998 11.6667 15.0999 11.6667 16.5V20.1667C11.6667 21.5668 11.6667 22.2669 11.9392 22.8016C12.1789 23.272 12.5614 23.6545 13.0318 23.8942C13.5666 24.1667 14.2666 24.1667 15.6667 24.1667Z" stroke="#44403C" stroke-width="1.66667" stroke-linecap="round" stroke-linejoin="round"/>
<path d="M19.2256 18.31C18.3923 17.81 17.9756 17.1833 17.9756 16.43C17.9756 15.8167 18.2056 15.36 18.6656 15.06C19.019 14.8267 19.4723 14.71 20.0256 14.71C20.639 14.71 21.1323 14.8733 21.5056 15.2C21.8656 15.5133 22.0456 15.9267 22.0456 16.44C22.0456 17.1533 21.6256 17.7733 20.7856 18.3C21.2856 18.5467 21.6456 18.79 21.8656 19.03C22.1723 19.37 22.3256 19.7767 22.3256 20.25C22.3256 20.7633 22.139 21.19 21.7656 21.53C21.3256 21.93 20.7356 22.13 19.9956 22.13C19.309 22.13 18.749 21.9533 18.3156 21.6C17.8956 21.26 17.6856 20.8033 17.6856 20.23C17.6856 19.49 18.199 18.85 19.2256 18.31ZM20.0456 17.83C20.5656 17.4767 20.8256 17.0067 20.8256 16.42C20.8256 15.86 20.5556 15.58 20.0156 15.58C19.769 15.5867 19.5723 15.66 19.4256 15.8C19.2723 15.96 19.1956 16.1733 19.1956 16.44C19.1956 16.7 19.2623 16.9467 19.3956 17.18C19.529 17.42 19.7456 17.6367 20.0456 17.83ZM20.0156 18.74C19.609 18.9533 19.3223 19.1633 19.1556 19.37C18.9956 19.5767 18.9156 19.8333 18.9156 20.14C18.9156 20.8133 19.2823 21.15 20.0156 21.15C20.7623 21.15 21.1356 20.8167 21.1356 20.15C21.1356 19.5967 20.7623 19.1267 20.0156 18.74Z" fill="#1D2939"/>
</svg>
