<svg width="40" height="40" viewBox="0 0 40 40" fill="none" xmlns="http://www.w3.org/2000/svg">
<rect width="40" height="40" rx="20" fill="#E7E5E4"/>
<path d="M25.0001 24.1667V26.1667C25.0001 26.6334 25.0001 26.8667 24.9093 27.045C24.8294 27.2018 24.7019 27.3293 24.5451 27.4092C24.3668 27.5 24.1335 27.5 23.6667 27.5H16.3334C15.8667 27.5 15.6333 27.5 15.4551 27.4092C15.2983 27.3293 15.1708 27.2018 15.0909 27.045C15.0001 26.8667 15.0001 26.6334 15.0001 26.1667V24.1667M15.6667 24.1667H24.3334C25.7335 24.1667 26.4336 24.1667 26.9684 23.8942C27.4388 23.6545 27.8212 23.272 28.0609 22.8016C28.3334 22.2669 28.3334 21.5668 28.3334 20.1667V16.5C28.3334 15.0999 28.3334 14.3998 28.0609 13.865C27.8212 13.3946 27.4388 13.0122 26.9684 12.7725C26.4336 12.5 25.7335 12.5 24.3334 12.5H15.6667C14.2666 12.5 13.5666 12.5 13.0318 12.7725C12.5614 13.0122 12.1789 13.3946 11.9392 13.865C11.6667 14.3998 11.6667 15.0999 11.6667 16.5V20.1667C11.6667 21.5668 11.6667 22.2669 11.9392 22.8016C12.1789 23.272 12.5614 23.6545 13.0318 23.8942C13.5666 24.1667 14.2666 24.1667 15.6667 24.1667Z" stroke="#44403C" stroke-width="1.66667" stroke-linecap="round" stroke-linejoin="round"/>
<path d="M21.143 18.66C20.983 18.86 20.813 19.0167 20.633 19.13C20.3664 19.2967 20.0564 19.38 19.703 19.38C19.0364 19.38 18.5264 19.1367 18.173 18.65C17.8864 18.2567 17.743 17.76 17.743 17.16C17.743 16.3867 17.9497 15.7833 18.363 15.35C18.743 14.95 19.263 14.75 19.923 14.75C21.4497 14.75 22.213 15.8667 22.213 18.1C22.213 18.9267 22.1397 19.59 21.993 20.09C21.853 20.59 21.6164 21.01 21.283 21.35C20.8097 21.83 20.1897 22.07 19.423 22.07C19.243 22.07 19.0064 22.0433 18.713 21.99L18.323 21.51V21.04C18.5764 21.0933 18.8297 21.12 19.083 21.12C19.8297 21.12 20.3497 20.9433 20.643 20.59C20.943 20.2367 21.1097 19.5933 21.143 18.66ZM20.993 17.21C20.993 16.2567 20.6564 15.78 19.983 15.78C19.6697 15.78 19.4164 15.9033 19.223 16.15C19.0364 16.3967 18.943 16.7233 18.943 17.13C18.943 17.5033 19.0364 17.81 19.223 18.05C19.4097 18.29 19.6464 18.41 19.933 18.41C20.2397 18.41 20.493 18.2967 20.693 18.07C20.893 17.8433 20.993 17.5567 20.993 17.21Z" fill="#1D2939"/>
</svg>
